<?xml version="1.0" standalone="no"?>
<!DOCTYPE svg PUBLIC "-//W3C//DTD SVG 20010904//EN"
 "http://www.w3.org/TR/2001/REC-SVG-20010904/DTD/svg10.dtd">
<svg version="1.0" xmlns="http://www.w3.org/2000/svg"
 width="700.000000pt" height="700.000000pt" viewBox="0 0 700.000000 700.000000"
 preserveAspectRatio="xMidYMid meet">
<metadata>
Created by potrace 1.14, written by Peter Selinger 2001-2017
</metadata>
<g transform="translate(0.000000,700.000000) scale(0.100000,-0.100000)"
fill="#000000" stroke="none">
<path d="M2429 6458 c-27 -9 -49 -44 -49 -78 0 -27 28 -26 57 2 15 14 36 22
65 22 40 1 43 -1 40 -24 -9 -69 -9 -161 -1 -215 12 -72 50 -132 148 -232 81
-82 116 -101 222 -118 44 -7 87 -19 97 -28 9 -8 32 -18 51 -20 49 -8 57 -21
25 -46 l-27 -21 62 6 c54 6 61 5 55 -9 -3 -9 -26 -26 -50 -38 -64 -30 -74 -59
-36 -102 20 -22 16 -25 -55 -43 -96 -25 -192 -94 -227 -163 -44 -85 -49 -206
-12 -304 17 -45 21 -67 13 -67 -16 0 -196 122 -225 153 -23 24 -92 202 -92
237 0 10 -9 21 -19 25 -22 7 -30 41 -24 104 9 89 4 113 -32 160 -19 24 -35 48
-35 53 0 4 -10 8 -21 8 -20 0 -58 27 -134 95 -256 229 -504 386 -773 490 -137
53 -207 66 -354 70 -119 2 -176 -11 -247 -58 -52 -34 -71 -73 -75 -148 -4 -78
9 -138 49 -224 60 -129 137 -218 329 -379 37 -32 65 -65 78 -95 59 -133 73
-157 120 -207 64 -68 234 -184 341 -234 45 -21 117 -45 160 -53 42 -9 90 -25
106 -36 16 -12 39 -21 50 -21 13 0 50 -26 89 -63 37 -34 84 -73 105 -86 20
-12 37 -27 37 -32 0 -16 114 -65 157 -68 33 -2 53 -50 34 -80 -7 -11 -18 -6
-55 26 -77 67 -190 123 -456 223 -246 93 -481 152 -705 177 -114 13 -384 9
-445 -6 -113 -28 -172 -78 -172 -145 0 -197 241 -506 553 -709 116 -76 226
-134 290 -154 93 -28 315 -23 487 13 241 50 432 129 556 230 106 86 97 37 -13
-70 -66 -64 -95 -83 -193 -129 -195 -92 -517 -287 -689 -417 -449 -341 -665
-547 -812 -775 -121 -189 -199 -417 -193 -564 7 -164 100 -242 291 -243 169
-2 272 56 620 347 66 55 158 127 204 159 117 82 158 127 218 242 71 137 124
264 258 621 121 322 156 391 246 479 52 51 49 36 -7 -40 -25 -34 -59 -86 -76
-116 -34 -62 -100 -229 -96 -242 2 -5 34 55 71 133 38 78 86 168 107 199 21
31 45 72 53 91 8 19 50 67 95 108 77 68 82 76 82 113 0 45 3 45 69 4 24 -15
38 -31 35 -39 -2 -7 -23 -29 -46 -48 -58 -47 -136 -126 -180 -180 -49 -60 -81
-132 -163 -369 -37 -107 -107 -301 -155 -430 -209 -558 -277 -811 -267 -980 5
-87 85 -391 143 -543 30 -79 99 -177 143 -203 19 -11 31 -26 31 -40 0 -27 -29
-109 -70 -202 -34 -75 -33 -107 2 -59 29 40 38 24 21 -40 -19 -73 -45 -124
-88 -172 -40 -44 -42 -51 -15 -51 29 0 24 -25 -11 -54 -19 -16 -29 -32 -25
-42 3 -8 -8 -33 -24 -56 -17 -22 -30 -47 -30 -54 0 -7 -14 -25 -32 -41 -96
-86 -98 -88 -98 -141 0 -33 5 -54 16 -63 14 -11 16 -10 14 11 -4 46 0 58 27
90 25 30 30 32 71 26 51 -7 72 5 72 40 0 33 36 120 69 168 16 23 32 58 36 80
5 29 9 36 18 27 18 -18 28 -13 23 15 -5 25 -5 26 14 9 11 -10 20 -16 20 -14 0
107 9 228 16 242 9 16 11 16 22 -8 14 -31 32 -33 33 -2 1 23 3 48 14 155 6 67
37 147 60 155 7 3 23 -6 36 -21 28 -33 34 -19 20 48 -14 65 -14 90 1 90 6 0 9
-3 5 -6 -7 -7 28 -80 43 -89 15 -9 12 9 -11 78 -18 51 -20 77 -16 147 7 102
30 196 57 230 11 14 27 34 34 45 14 19 24 90 26 185 l1 45 15 -27 c8 -15 32
-76 53 -135 86 -240 211 -495 375 -763 151 -248 298 -426 373 -451 48 -16 108
3 164 51 167 142 496 725 708 1250 16 41 31 68 31 60 1 -8 3 -22 5 -30 1 -8 6
-46 10 -85 7 -74 18 -103 45 -122 23 -16 37 -52 59 -157 24 -109 20 -161 -14
-220 -33 -56 -27 -58 20 -9 l34 36 -5 -29 c-11 -71 -18 -87 -50 -129 -19 -25
-30 -45 -26 -45 11 0 52 28 84 58 l26 24 -9 -38 c-14 -61 -12 -70 9 -51 10 10
23 17 30 17 35 0 50 -207 19 -267 -25 -48 -2 -50 32 -3 17 23 32 36 36 30 6
-9 66 -182 65 -187 -3 -35 2 -83 8 -83 5 0 14 10 21 23 9 19 11 14 7 -30 -3
-29 -3 -53 -1 -53 2 0 11 7 19 16 15 14 18 12 32 -23 9 -21 34 -66 56 -100 24
-38 41 -76 43 -99 4 -55 53 -84 80 -48 10 15 14 15 42 1 32 -17 65 -59 62 -80
-1 -6 -1 -21 0 -32 2 -35 23 1 25 43 1 50 -22 84 -84 125 -27 17 -53 41 -56
52 -4 11 -20 37 -37 57 -25 31 -28 40 -17 53 7 9 11 17 9 18 -2 1 -15 8 -29
15 -14 7 -35 27 -48 45 l-22 32 31 3 31 3 -40 35 c-37 31 -117 168 -137 234
l-8 24 28 -18 c15 -10 28 -16 30 -14 2 2 -18 49 -45 103 -69 141 -69 141 -21
149 85 13 167 112 231 279 29 74 112 348 125 412 3 14 8 37 11 52 22 104 24
164 9 254 -14 86 -75 316 -115 439 -71 212 -312 795 -413 998 -49 97 -68 122
-157 205 -45 42 -123 151 -110 155 10 4 167 -127 211 -174 15 -16 30 -42 34
-59 8 -29 8 -29 14 -6 6 24 7 24 32 -10 38 -49 98 -151 148 -249 24 -47 48
-89 53 -95 30 -32 -109 261 -164 345 -28 43 -27 43 29 -16 68 -72 118 -167
193 -369 124 -334 235 -582 306 -678 20 -28 60 -64 95 -85 234 -144 389 -257
514 -376 80 -75 154 -128 211 -150 83 -31 221 -59 299 -59 123 0 182 38 234
153 28 62 26 123 -9 230 -97 297 -349 651 -615 863 -302 242 -853 547 -1218
675 -64 23 -132 49 -150 58 -46 23 -87 64 -87 87 0 31 54 18 220 -51 275 -115
476 -159 760 -167 122 -3 197 13 300 65 384 193 643 470 700 748 26 129 10
166 -88 202 -62 24 -139 34 -257 34 -81 0 -274 -13 -285 -19 -3 -1 -27 -6 -55
-9 -47 -7 -118 -22 -365 -80 -188 -43 -449 -153 -713 -298 -48 -26 -89 -48
-92 -48 -6 0 -45 91 -45 107 0 7 29 27 65 43 46 21 68 37 75 55 5 14 17 25 27
25 31 0 81 37 98 73 20 42 53 74 80 78 11 1 49 -1 85 -6 68 -9 221 -9 255 1
80 21 152 67 238 152 55 53 157 192 157 213 0 26 56 89 99 113 60 32 76 33 97
1 15 -23 14 -27 -13 -77 -38 -71 -206 -237 -322 -318 -51 -36 -107 -78 -125
-93 l-31 -28 45 22 c170 83 480 382 480 463 0 10 -11 33 -24 51 l-24 31 100
80 c277 218 393 400 384 601 -3 57 -8 80 -27 108 -87 126 -394 151 -697 55
-297 -93 -546 -242 -921 -549 l-104 -85 -18 23 c-11 13 -19 19 -19 13 0 -5
-18 -36 -40 -68 -22 -33 -40 -65 -40 -72 0 -25 -25 -6 -30 23 -4 23 -7 26 -17
14 -8 -11 -8 -26 1 -64 11 -40 11 -54 1 -70 -7 -11 -16 -36 -19 -55 -4 -19
-12 -57 -18 -83 l-10 -49 -25 44 c-33 58 -50 76 -108 113 -50 32 -99 52 -152
61 -66 11 -66 12 -43 50 24 42 14 70 -27 81 -39 9 -90 41 -97 60 -5 11 -2 14
11 8 36 -13 73 -17 73 -7 0 5 -7 12 -15 16 -36 14 7 42 59 38 10 0 26 8 35 19
17 21 34 25 121 35 92 9 154 45 250 142 107 109 133 158 138 267 2 52 -2 97
-11 127 -8 26 -12 49 -9 52 3 4 20 6 37 6 23 0 41 -9 63 -31 40 -41 68 -34 58
14 -15 72 -87 93 -173 49 -23 -12 -51 -22 -62 -22 -28 0 -35 -17 -18 -44 9
-14 25 -22 39 -22 22 1 23 -1 23 -84 0 -58 -6 -100 -19 -133 -24 -63 -101
-167 -124 -167 -10 0 -29 -12 -43 -26 -31 -34 -95 -63 -136 -64 -38 0 -39 2
-17 35 24 37 5 30 -44 -15 -49 -45 -50 -45 -79 -25 -18 13 -22 13 -34 -1 -7
-8 -18 -13 -25 -10 -7 3 -22 -7 -33 -22 -18 -26 -20 -26 -38 -9 -23 20 -33 14
-33 -20 0 -34 -26 -39 -62 -13 -16 12 -32 20 -35 17 -2 -3 7 -34 21 -68 14
-35 24 -64 22 -66 -2 -2 -27 12 -56 32 -57 38 -66 41 -72 23 -3 -9 -11 -9 -35
1 -20 8 -38 9 -50 4 -28 -15 -102 -16 -119 -2 -18 15 -75 -1 -141 -39 -24 -13
-43 -21 -43 -18 0 3 11 31 25 62 14 31 25 60 25 65 0 5 -16 -1 -36 -13 -40
-24 -56 -16 -56 26 0 30 -13 43 -22 21 -7 -20 -26 -19 -56 5 -31 24 -47 25
-52 4 -2 -13 -10 -10 -38 15 -30 26 -37 28 -46 16 -17 -22 -27 -19 -85 27 -52
41 -52 41 -30 9 13 -18 21 -34 18 -37 -3 -3 -23 0 -46 6 -45 12 -81 44 -81 72
0 16 -16 23 -42 19 -12 -1 -55 60 -86 124 -43 87 -58 164 -43 216 11 36 15 40
37 35 19 -5 24 -2 24 12 0 25 -25 47 -80 70 -59 26 -99 32 -131 20z m-1168
-143 c186 -39 400 -138 629 -291 52 -35 115 -82 140 -105 49 -44 39 -42 -30 7
-51 36 -113 64 -142 64 -19 0 -79 27 -88 40 -3 4 -48 36 -100 72 -165 112
-362 200 -472 211 -48 5 -40 -9 9 -17 83 -15 281 -95 344 -140 31 -21 15 -20
-62 3 -190 58 -428 111 -507 113 -114 3 -150 -50 -128 -190 10 -60 60 -188
101 -258 l35 -59 -30 35 c-74 85 -150 264 -150 353 0 91 65 154 181 176 59 11
183 4 270 -14z m4757 -3 c113 -36 158 -81 165 -163 11 -138 -130 -384 -266
-463 -23 -13 -98 -41 -167 -61 -250 -73 -416 -128 -463 -152 -57 -28 -57 -42
-1 -18 41 18 139 54 164 60 90 25 354 106 384 119 49 21 56 15 19 -17 -15 -14
-44 -39 -63 -56 -50 -45 -126 -79 -190 -85 -77 -7 -226 -54 -418 -130 l-163
-64 58 66 c123 142 145 158 308 217 166 60 398 174 450 221 l40 36 -40 -23
c-137 -77 -182 -100 -285 -146 -135 -60 -289 -115 -304 -110 -14 5 46 62 143
136 95 73 135 93 236 120 111 30 289 101 323 128 31 26 16 23 -60 -14 -87 -42
-327 -113 -383 -113 -18 0 -20 7 -20 58 -1 31 -4 74 -7 94 -5 35 -4 37 26 44
83 18 274 90 438 166 113 53 68 43 -78 -17 -176 -72 -334 -125 -373 -125 -25
0 -34 7 -57 46 -15 25 -23 49 -18 53 16 15 340 119 421 136 105 22 204 23 236
2 36 -24 65 -90 62 -142 -4 -74 -34 -137 -169 -360 l-18 -30 26 30 c102 116
176 276 176 382 0 45 -5 57 -41 103 l-41 52 -107 -6 c-138 -7 -184 -17 -366
-81 -82 -29 -161 -56 -175 -60 l-25 -6 25 22 c14 12 70 43 125 69 55 26 116
54 135 63 l35 17 -35 -6 c-86 -15 -279 -116 -391 -205 -53 -42 -42 -49 15 -10
24 17 50 31 56 31 6 0 24 -21 41 -47 45 -72 77 -195 64 -253 -10 -44 -167
-189 -206 -190 -11 0 -22 17 -33 50 -14 42 -44 109 -141 313 -17 37 -17 38 6
58 138 122 390 240 584 274 102 18 266 11 343 -13z m-4732 -117 c121 -32 236
-62 256 -67 l38 -10 -38 -49 c-20 -26 -44 -48 -52 -49 -29 0 -204 49 -334 95
-115 40 -191 61 -126 33 96 -39 380 -138 400 -138 5 0 20 -4 33 -9 l25 -10
-20 -78 c-11 -43 -24 -83 -29 -89 -6 -8 -25 -8 -62 -2 -124 23 -245 48 -289
62 -55 17 -62 14 -18 -9 17 -9 30 -13 30 -10 0 3 8 1 18 -4 11 -6 30 -12 43
-14 13 -3 42 -10 64 -15 22 -6 56 -14 75 -17 67 -10 135 -28 161 -41 15 -7 73
-57 129 -111 136 -130 156 -168 63 -121 -26 14 -122 63 -213 109 -167 86 -225
112 -270 123 -14 4 58 -35 160 -86 334 -169 380 -199 526 -345 122 -123 191
-206 175 -211 -12 -4 -90 39 -206 114 -102 66 -144 85 -290 129 -161 49 -171
38 -12 -14 161 -52 244 -91 327 -151 36 -26 80 -55 99 -65 32 -16 34 -18 16
-31 -10 -7 -23 -15 -29 -17 -14 -5 9 -49 44 -84 l25 -26 -80 7 c-150 11 -232
46 -426 177 -110 75 -168 133 -201 200 -32 66 -49 127 -38 134 5 3 90 -26 190
-65 99 -38 186 -70 193 -70 15 1 -31 22 -213 100 -178 75 -313 150 -299 165 7
6 201 -80 474 -210 55 -26 104 -50 109 -53 5 -3 6 1 1 8 -8 13 -357 185 -522
258 -51 23 -93 36 -93 31 0 -20 -25 -2 -30 22 -3 13 -20 33 -38 45 -17 12 -29
24 -26 27 4 3 -3 18 -14 34 -42 59 -105 202 -118 268 -19 95 -12 129 33 172
26 23 33 25 94 20 37 -3 165 -31 285 -62z m3778 -137 c-42 -40 -104 -99 -137
-130 -32 -32 -65 -58 -72 -58 -16 0 -38 26 -33 40 3 8 307 220 316 220 2 0
-31 -33 -74 -72z m-3389 11 c93 -65 135 -101 135 -116 0 -8 -16 -49 -36 -91
-45 -97 -63 -144 -78 -205 l-11 -48 -102 104 c-113 114 -115 120 -89 208 24
80 91 189 115 189 4 0 34 -18 66 -41z m3384 -81 c67 -107 161 -336 161 -393 0
-30 -40 -88 -135 -191 -174 -190 -266 -272 -250 -221 2 7 22 68 44 137 22 69
43 146 46 170 4 25 8 55 10 67 4 28 -20 145 -45 218 -11 32 -16 63 -12 70 15
26 147 165 157 165 6 0 16 -10 24 -22z m-3085 -64 c83 -50 82 -47 47 -98 -65
-94 -65 -221 -2 -476 22 -85 37 -157 35 -159 -14 -15 -287 291 -315 353 -35
78 -19 172 53 306 60 113 95 127 182 74z m2850 -67 c33 -44 60 -109 79 -192
23 -102 16 -157 -38 -320 -29 -86 -85 -223 -71 -173 3 10 1 20 -3 23 -5 3 -22
-22 -37 -55 -18 -39 -30 -56 -35 -48 -10 16 -20 -8 -23 -55 -2 -47 -54 -117
-113 -155 -65 -41 -93 -49 -93 -26 0 12 -16 0 -48 -34 l-47 -52 -95 95 -95 96
22 38 c12 21 31 72 43 112 17 63 27 81 66 118 25 24 48 55 50 69 3 14 9 33 15
44 10 19 -4 27 -16 8 -8 -13 -25 -13 -25 1 0 6 9 24 21 41 20 28 19 43 -3 43
-22 0 -18 23 7 54 15 17 33 31 41 31 8 0 14 4 14 9 0 5 11 23 25 39 13 16 35
49 47 73 16 31 60 74 148 146 69 57 128 103 132 103 4 0 18 -15 32 -33z
m-2706 -50 c12 -24 32 -52 44 -63 20 -17 19 -14 -6 29 -38 66 -13 62 56 -10
67 -71 81 -96 83 -150 2 -23 12 -57 24 -75 68 -107 77 -157 26 -144 -33 8 -32
-4 5 -39 30 -29 43 -58 15 -35 -13 11 -13 8 0 -30 18 -52 18 -50 -1 -50 -12 0
-9 -8 12 -32 37 -44 86 -80 101 -73 47 19 48 19 26 -6 -35 -39 -14 -63 126
-148 l123 -75 -44 -41 c-138 -128 -161 -140 -206 -109 -14 10 -34 14 -50 11
-17 -3 -36 2 -52 13 -15 10 -45 26 -68 35 -23 10 -53 31 -67 49 -21 27 -25 28
-25 11 -1 -16 -12 -8 -50 34 -52 57 -66 92 -55 143 6 27 5 30 -10 24 -12 -4
-16 -2 -12 6 21 51 20 53 -6 26 -14 -16 -28 -28 -31 -28 -3 0 -5 33 -4 73 0
49 -10 110 -31 192 -17 66 -34 138 -37 160 -12 72 -8 229 5 255 14 27 71 90
81 90 4 0 16 -19 28 -43z m1575 -163 c57 -29 197 -118 197 -127 0 -4 -6 -23
-14 -42 -8 -18 -13 -42 -11 -52 2 -10 4 -21 4 -26 1 -4 34 -41 74 -83 89 -93
112 -131 104 -166 -9 -36 -31 -56 -75 -67 -21 -5 -224 -8 -470 -6 -470 3 -474
4 -488 59 -8 35 16 79 96 175 77 94 85 121 50 178 l-19 32 56 51 c33 29 80 59
112 71 103 38 310 40 384 3z m-1339 -10 c3 -8 2 -12 -4 -9 -6 3 -10 10 -10 16
0 14 7 11 14 -7z m60 -10 c3 -8 2 -12 -4 -9 -6 3 -10 10 -10 16 0 14 7 11 14
-7z m2026 12 c0 -2 -7 -9 -15 -16 -13 -11 -14 -10 -9 4 5 14 24 23 24 12z
m1210 -176 c0 -12 -48 -33 -180 -77 -128 -42 -272 -101 -444 -182 -72 -33
-132 -58 -135 -56 -13 13 81 88 153 124 131 63 467 182 546 193 52 7 60 7 60
-2z m-2582 -22 c7 -7 12 -24 12 -39 0 -51 -99 -121 -140 -99 -27 15 -25 36 6
65 15 14 23 25 18 25 -14 0 -57 -32 -77 -57 -10 -13 -23 -23 -28 -23 -34 0 33
90 89 120 42 22 102 26 120 8z m1020 -3 c39 -17 78 -49 94 -78 6 -12 -4 -8
-33 12 -23 17 -46 31 -51 31 -5 0 -8 -16 -5 -35 4 -27 1 -36 -13 -40 -52 -17
-148 84 -113 118 12 12 83 7 121 -8z m1453 -95 c-43 -113 -206 -290 -318 -346
-56 -28 -64 -29 -198 -29 -77 0 -153 4 -168 8 l-28 8 20 26 c12 14 26 43 31
65 11 38 14 40 163 112 166 81 449 194 514 206 2 0 -6 -22 -16 -50z m-1831
-300 c138 -19 271 -47 332 -70 75 -28 161 -92 262 -194 88 -90 124 -147 133
-212 15 -109 -21 -154 -233 -295 -151 -100 -226 -139 -283 -146 -62 -9 -268
-7 -259 2 9 9 40 13 149 20 116 7 158 17 209 50 19 12 73 46 120 75 257 159
299 226 229 370 -23 46 -58 90 -123 155 -165 166 -212 185 -431 181 -77 -2
-151 -7 -165 -10 -48 -13 -166 -13 -270 -1 -199 24 -345 15 -469 -29 -24 -9
-49 -16 -55 -16 -21 0 79 48 134 64 66 20 262 55 345 63 33 3 61 6 62 7 7 7
239 -4 313 -14z m-2621 -80 c47 -7 224 -61 461 -140 212 -70 478 -158 592
-195 114 -36 210 -71 214 -77 4 -6 3 -9 -2 -6 -5 4 -32 8 -60 11 -191 21 -455
79 -544 119 -178 81 -365 144 -603 202 -243 60 -346 58 -410 -5 -26 -26 -29
-35 -23 -70 13 -79 106 -235 180 -302 55 -50 170 -134 214 -157 l43 -22 92 35
c51 19 169 56 262 82 94 25 232 66 308 90 l137 45 128 -21 c174 -28 332 -58
344 -65 23 -14 -17 -20 -129 -18 -65 1 -179 3 -253 4 l-135 2 -112 -56 c-240
-121 -527 -191 -673 -164 -145 27 -409 330 -480 551 -20 64 -7 100 49 130 26
15 66 31 87 36 47 11 209 6 313 -9z m171 5 c30 -4 57 -8 60 -10 3 -2 24 -6 46
-9 36 -6 97 -22 314 -82 37 -11 56 -12 58 -5 2 6 8 11 13 11 4 0 6 -7 2 -17
-5 -13 -2 -15 15 -11 12 4 22 2 22 -3 0 -5 6 -9 14 -9 56 0 506 -188 506 -211
0 -5 -6 -6 -12 -4 -7 2 -101 30 -208 60 -248 71 -255 74 -500 161 -113 40
-245 85 -295 100 -49 15 -94 31 -100 37 -7 7 -7 8 0 4 6 -3 35 -8 65 -12z
m4471 -21 c-187 -49 -585 -188 -984 -344 -88 -34 -161 -59 -164 -57 -16 17
262 160 437 225 190 71 496 162 605 179 17 3 48 9 70 13 22 4 60 8 85 8 39 1
33 -2 -49 -24z m554 1 c22 -11 45 -30 51 -43 25 -51 -30 -232 -108 -352 -84
-132 -383 -401 -428 -386 -8 3 -66 24 -128 48 l-113 43 104 6 c154 9 233 50
392 205 85 83 125 139 171 242 43 92 54 161 30 181 -22 18 -128 20 -231 5 -44
-7 -100 -15 -125 -19 -164 -24 -431 -100 -568 -161 -31 -14 -95 -39 -141 -56
-142 -49 -441 -116 -441 -98 0 26 842 323 1070 378 120 29 119 29 280 28 123
-1 151 -4 185 -21z m-3060 -16 c71 -3 154 -25 175 -46 13 -13 13 -15 -5 -9
-38 10 -82 16 -154 18 -61 3 -75 0 -86 -15 -16 -23 -12 -35 33 -107 71 -111
304 -412 257 -330 -20 35 -94 142 -157 226 -90 122 -122 182 -106 201 12 15
19 14 195 -3 70 -7 107 -33 116 -82 3 -15 6 -170 6 -346 l2 -318 -28 7 c-58
14 -82 53 -137 220 -20 61 -51 139 -69 175 -43 84 -201 313 -234 340 -45 35
-46 22 -3 -27 67 -76 206 -292 234 -363 14 -36 39 -115 54 -177 l29 -111 -21
-6 c-11 -3 -80 -6 -152 -6 l-131 0 -94 63 c-52 35 -138 88 -192 117 -54 29
-114 67 -134 86 -34 33 -36 36 -30 86 4 28 18 75 32 104 28 58 80 97 238 183
79 44 97 58 50 40 -64 -24 -156 -75 -220 -123 -89 -67 -115 -114 -117 -208 -1
-67 0 -71 31 -97 27 -22 184 -116 218 -130 6 -2 46 -27 90 -56 129 -82 160
-91 368 -96 42 -1 77 -6 77 -10 0 -10 -10 -10 -195 -13 l-120 -1 -230 138
c-126 75 -243 150 -259 167 -23 23 -30 40 -34 83 -2 30 1 71 8 91 31 95 275
270 441 317 40 11 177 28 189 23 3 -1 32 -3 65 -5z m781 -14 c119 -36 296
-180 343 -280 56 -119 39 -167 -91 -263 -135 -99 -271 -180 -322 -192 -62 -14
-172 -23 -239 -21 -28 1 -29 2 -22 44 37 226 86 366 175 496 51 77 100 159
100 171 0 20 -21 9 -30 -15 -5 -14 -36 -64 -68 -113 -84 -125 -116 -187 -152
-288 -17 -49 -31 -91 -31 -94 0 -9 -11 -55 -30 -121 -20 -68 -47 -103 -89
-114 l-25 -6 2 208 c3 429 5 468 19 501 7 18 19 32 26 33 7 0 22 2 33 4 11 1
57 6 103 9 126 10 125 -1 -33 -241 -104 -157 -138 -216 -113 -195 22 18 161
218 219 314 49 81 60 120 37 134 -6 4 -53 7 -102 6 l-91 -1 50 18 c63 23 263
27 331 6z m-2946 -39 c30 -8 53 -15 50 -16 -11 -4 -38 -8 -95 -14 -71 -9 -147
-26 -158 -36 -5 -4 13 -4 40 0 106 17 145 20 239 21 91 1 111 -3 246 -45 164
-51 298 -102 313 -118 7 -7 7 -9 0 -6 -16 9 -244 20 -454 23 -220 3 -286 -7
-365 -56 -57 -35 -55 -36 -112 78 -54 110 -47 152 29 180 40 14 192 8 267 -11z
m1078 12 c-3 -7 -13 -15 -24 -17 -16 -3 -17 -1 -5 13 16 19 34 21 29 4z m4113
-10 c4 -44 -43 -190 -78 -245 l-14 -21 -63 29 c-35 16 -74 32 -87 35 -28 6
-581 6 -656 -1 -89 -7 -79 -1 127 71 212 76 248 83 425 85 73 0 138 5 146 10
9 6 -1 9 -32 9 -64 0 -70 13 -12 26 74 16 243 18 244 2z m-4706 -232 c187 -24
303 -42 337 -55 15 -5 -14 -18 -115 -49 l-135 -42 -83 24 c-170 49 -387 21
-500 -65 l-36 -28 -34 21 c-39 23 -129 111 -129 126 0 16 57 53 103 68 32 10
102 12 297 9 140 -2 273 -7 295 -9z m4207 -16 c51 -17 109 -33 128 -36 19 -3
44 -7 55 -10 51 -13 -16 16 -81 34 -130 37 -129 40 11 40 143 -1 203 -13 250
-53 l30 -25 -79 -74 -79 -73 -57 33 c-78 45 -144 70 -233 87 -99 19 -171 14
-266 -18 l-79 -26 -116 36 c-65 19 -125 35 -134 35 -34 1 11 18 93 35 121 26
249 42 362 44 89 2 112 -2 195 -29z m-515 -119 c72 -23 206 -59 298 -81 147
-36 274 -76 307 -96 6 -4 -11 -16 -38 -26 -132 -52 -351 -13 -594 106 -69 33
-134 60 -145 59 -11 0 -56 -4 -100 -7 -216 -16 -286 -20 -353 -20 -40 1 -75 4
-78 7 -15 15 13 26 104 42 53 9 113 21 132 25 19 5 60 12 90 16 30 3 78 10
105 14 79 11 132 4 272 -39z m508 9 c78 -20 160 -55 199 -85 19 -15 19 -16 -9
-45 -16 -17 -39 -33 -50 -36 -12 -3 -64 11 -116 30 -52 20 -148 48 -214 62
-183 40 -180 37 -120 65 28 12 64 26 80 30 43 12 138 3 230 -21z m-4191 -21
c20 -7 36 -16 36 -20 0 -4 -30 -12 -67 -19 -87 -15 -207 -54 -301 -97 l-74
-34 -55 41 c-30 23 -52 47 -50 53 2 7 37 29 78 50 63 31 90 38 165 45 101 8
215 0 268 -19z m878 -77 c19 -19 -1 -28 -132 -58 -195 -44 -309 -80 -460 -144
-275 -117 -324 -127 -448 -96 -93 23 -105 14 -17 -13 100 -31 214 -24 310 19
27 12 184 80 215 93 111 46 326 107 430 122 25 4 53 9 63 11 9 3 17 1 17 -4 0
-5 -33 -16 -72 -25 -76 -17 -155 -46 -126 -47 14 0 51 7 183 36 58 12 123 15
129 6 22 -35 -279 -184 -480 -238 -115 -31 -123 -32 -199 -40 -33 -4 -63 -8
-66 -10 -3 -1 -70 -6 -150 -10 -128 -5 -150 -4 -200 14 -55 19 -214 108 -277
155 -32 24 -33 37 -2 32 8 -2 31 -6 50 -9 19 -4 42 -9 50 -11 44 -13 263 -46
268 -41 2 3 -42 14 -97 27 -56 12 -98 25 -94 29 4 4 58 19 118 35 142 36 238
73 350 135 l90 50 267 -3 c197 -2 271 -6 280 -15z m2713 -8 c22 -12 65 -35 96
-52 30 -16 98 -46 150 -65 365 -138 361 -135 357 -161 -2 -15 -29 -34 -100
-70 l-97 -49 -123 0 c-187 -1 -277 7 -451 44 -163 34 -407 128 -528 204 -43
28 -53 56 -16 50 12 -2 60 -8 107 -14 47 -6 96 -13 110 -16 66 -13 135 -17
125 -7 -9 9 -39 17 -155 38 -96 18 -130 27 -136 36 -7 11 50 7 156 -12 30 -5
71 -12 90 -14 106 -13 247 -57 450 -139 225 -91 371 -118 463 -87 63 20 43 47
-53 71 -46 11 -160 23 -160 16 0 -3 54 -15 120 -27 66 -13 120 -26 120 -31 0
-27 -170 -25 -275 3 -38 11 -143 48 -231 84 -144 57 -324 112 -424 129 -19 3
-54 10 -78 16 -23 5 -59 12 -80 15 -69 10 -91 24 -47 30 31 5 144 15 220 20
44 4 81 7 82 8 2 1 62 2 135 2 115 -1 138 -4 173 -22z m-2581 -216 c-12 -27
-194 -167 -194 -149 0 6 12 17 28 26 15 8 56 42 92 75 64 59 85 72 74 48z
m1777 -45 c13 -16 12 -17 -3 -4 -17 13 -22 21 -14 21 2 0 10 -8 17 -17z
m-1841 -97 c0 -14 -19 -38 -145 -187 -133 -156 -121 -147 -235 -185 -138 -45
-153 -48 -141 -25 31 57 302 286 433 366 80 49 88 52 88 31z m2050 -47 c30
-22 81 -56 113 -77 104 -67 261 -185 312 -235 l50 -48 -35 6 c-83 17 -190 89
-341 230 -63 58 -133 118 -156 133 -24 15 -43 31 -43 35 0 15 45 -4 100 -44z
m-2205 12 c-6 -5 -32 -22 -58 -38 -27 -16 -108 -88 -180 -159 -162 -159 -181
-174 -284 -217 -95 -40 -103 -46 -231 -167 -52 -49 -100 -90 -106 -90 -19 -1
-99 -40 -93 -46 3 -3 26 2 52 11 25 10 47 16 50 13 2 -2 -27 -36 -65 -76 -66
-68 -119 -108 -223 -167 -55 -30 -57 -44 -4 -21 102 42 209 131 332 276 57 67
188 200 197 200 11 0 -10 -44 -69 -143 -104 -176 -223 -322 -272 -334 -22 -5
-151 -52 -216 -78 -22 -9 -135 -15 -148 -8 -22 13 201 242 387 397 223 186
325 258 694 496 45 29 82 54 82 56 0 9 -123 -55 -195 -101 -77 -49 -147 -86
-152 -81 -11 11 143 104 342 208 140 72 183 91 160 69z m942 -11 c104 -10 159
-25 179 -51 15 -19 24 -59 13 -59 -5 0 -9 4 -9 8 0 5 -9 18 -20 30 -33 35
-103 48 -310 58 -128 7 -166 -1 -50 -10 36 -3 103 -8 150 -11 47 -4 102 -11
122 -16 33 -8 39 -15 48 -52 6 -23 13 -48 15 -55 3 -7 7 -45 11 -84 5 -54 3
-72 -7 -79 -8 -5 -58 -9 -111 -9 l-98 0 -78 78 c-198 196 -283 265 -296 243
-7 -11 33 -65 161 -219 52 -62 93 -117 91 -122 -4 -14 -254 111 -301 150 -32
27 -36 36 -31 63 8 47 45 116 74 139 23 19 35 20 185 14 88 -3 206 -10 262
-16z m834 7 c33 -26 51 -65 40 -85 -27 -50 -289 -272 -321 -272 -12 0 -2 14
125 175 117 148 127 163 115 170 -7 4 -66 -48 -143 -125 -73 -73 -148 -144
-168 -157 -40 -27 -116 -38 -188 -28 l-43 7 6 42 c20 132 35 194 50 203 17 11
40 14 227 29 97 7 115 23 22 18 -119 -6 -249 -15 -283 -20 -30 -4 -32 -3 -16
7 29 18 81 28 186 35 52 3 96 8 98 9 2 2 65 3 140 4 95 1 142 -3 153 -12z
m573 -56 c332 -180 559 -363 749 -604 100 -127 247 -331 247 -344 0 -7 -15 -4
-42 9 -156 74 -226 110 -244 125 -12 10 -54 71 -93 137 -162 270 -323 446
-561 615 -78 55 -139 101 -135 101 4 0 40 -17 79 -39z m211 -74 c276 -158 419
-249 600 -385 198 -149 375 -307 375 -334 0 -24 -121 45 -245 139 -52 39 -78
68 -101 111 -33 62 -46 72 -231 180 -59 34 -160 101 -223 148 -63 47 -152 108
-197 136 -121 74 -106 78 22 5z m-2268 -102 c18 -33 33 -68 33 -79 0 -17 -6
-18 -62 -12 -34 3 -65 11 -69 17 -12 20 -3 86 15 114 25 38 47 28 83 -40z
m1769 57 c24 -15 60 -163 36 -148 -5 3 -30 7 -57 11 -27 3 -51 7 -53 10 -2 2
6 33 18 69 21 63 32 74 56 58z m-200 -98 c10 -14 13 -28 8 -33 -5 -5 -67 -30
-139 -56 -71 -26 -197 -81 -279 -123 -181 -90 -217 -101 -338 -97 -103 4 -124
11 -295 104 -107 58 -251 114 -340 132 -66 14 -75 22 -45 38 25 13 66 2 212
-57 l125 -51 373 0 373 0 87 51 c124 72 213 118 228 118 8 0 21 -11 30 -26z
m773 -109 c89 -34 109 -53 216 -215 73 -110 205 -333 205 -346 0 -13 137 -244
196 -331 170 -249 198 -292 226 -348 l29 -60 -38 40 c-21 22 -58 65 -83 95
-57 70 -70 83 -70 73 0 -15 107 -145 178 -216 72 -72 91 -82 236 -111 111 -23
127 -25 184 -27 31 -1 49 -6 44 -11 -24 -24 -198 -7 -323 31 -91 28 -147 68
-277 195 -119 116 -144 156 -188 290 -26 81 -30 44 -5 -42 33 -109 31 -110
-55 -51 -86 60 -110 87 -123 138 -5 20 -23 93 -39 164 -36 149 -97 286 -198
440 -66 102 -165 227 -233 297 -20 20 -47 49 -61 65 l-25 28 65 -35 c36 -19
98 -48 139 -63z m-3224 75 c-3 -5 -74 -67 -158 -138 -224 -191 -230 -195 -377
-342 -175 -173 -263 -280 -247 -297 3 -2 32 3 65 12 98 28 105 17 31 -42 -174
-138 -370 -393 -413 -538 -16 -51 -14 -111 5 -146 15 -30 65 -76 103 -96 46
-24 203 -13 283 19 80 32 165 87 156 100 -3 6 -6 25 -5 42 1 28 0 29 -13 13
-7 -11 -12 -24 -9 -31 2 -6 -1 -19 -8 -28 -15 -18 -147 -92 -154 -85 -7 7 44
191 77 274 28 72 59 135 150 313 43 83 90 128 187 178 76 40 167 70 178 59 7
-6 -98 -202 -222 -414 -92 -158 -154 -282 -157 -313 -3 -37 -173 -135 -277
-160 -106 -25 -234 7 -283 72 -41 54 -50 116 -33 241 11 79 29 118 117 263
152 249 234 366 329 468 49 54 90 104 90 112 0 8 9 18 19 22 11 4 37 23 58 42
108 99 496 410 511 410 2 0 1 -4 -3 -10z m2897 -313 c171 -399 188 -469 95
-387 -46 40 -82 111 -188 372 -74 183 -89 230 -86 261 3 21 11 45 18 53 10 12
16 9 37 -27 13 -22 69 -145 124 -272z m-2202 186 c-34 -134 -124 -373 -142
-373 -7 0 5 40 82 275 53 161 73 212 78 197 2 -6 -6 -51 -18 -99z m2498 -78
c203 -241 351 -563 340 -743 l-3 -51 -44 22 c-94 47 -159 154 -288 467 -82
199 -116 290 -110 296 3 3 43 -56 89 -132 93 -153 166 -255 187 -262 8 -3 -6
24 -31 59 -54 76 -186 298 -252 424 l-48 90 42 -40 c23 -22 76 -80 118 -130z
m-2785 139 c-13 -33 -107 -212 -198 -374 -62 -110 -78 -143 -66 -136 11 7 126
204 237 405 37 68 70 119 71 114 8 -24 -164 -510 -237 -668 -87 -190 -139
-275 -207 -334 -37 -33 -184 -138 -230 -165 -6 -3 -1 20 12 52 13 33 27 81 30
108 5 49 5 48 -23 -26 -36 -99 -92 -197 -136 -240 l-36 -34 5 44 4 45 -20 -52
c-20 -51 -109 -148 -116 -126 -2 5 5 30 16 55 20 48 38 81 196 353 96 167 309
576 335 645 37 99 124 262 151 285 17 13 56 32 87 41 31 8 62 17 67 19 6 2 22
4 37 4 21 1 26 -3 21 -15z m3264 -21 c32 -20 99 -67 148 -104 50 -37 106 -73
125 -81 80 -33 302 -241 431 -403 60 -75 153 -220 208 -324 44 -84 23 -70 -25
17 -61 111 -144 232 -220 322 -82 98 -260 278 -319 323 l-40 31 25 -29 c34
-39 59 -65 180 -192 169 -177 200 -213 262 -308 81 -124 152 -265 189 -376 27
-80 31 -104 26 -164 -5 -75 -21 -120 -45 -130 -24 -9 -25 1 -2 45 26 51 28
119 5 175 -15 35 -114 201 -138 230 -4 6 -35 52 -68 104 -109 170 -223 265
-449 374 -112 53 -116 56 -167 128 -48 67 -56 89 -33 89 5 0 63 -36 129 -81
67 -44 151 -96 187 -115 115 -60 123 -41 31 67 -62 73 -122 126 -337 298 -183
147 -206 170 -103 104z m-3527 -43 c-11 -22 -54 -115 -96 -207 -115 -254 -151
-328 -171 -344 -10 -8 -45 -23 -78 -33 -33 -10 -90 -33 -128 -52 -80 -39 -82
-45 43 131 140 197 189 271 251 380 52 93 60 102 115 132 80 44 89 43 64 -7z
m897 5 c13 -10 4 -11 -40 -9 -57 2 -120 -11 -146 -30 -7 -6 -18 -22 -23 -36
-10 -25 -12 -263 -4 -400 3 -41 8 -124 11 -185 12 -200 31 -356 61 -510 40
-202 67 -236 219 -280 94 -28 122 -44 133 -79 l10 -31 1 28 c1 15 8 30 16 33
27 11 344 -54 370 -76 20 -17 34 -89 31 -155 -6 -103 -14 -109 -130 -79 -118
30 -421 124 -452 140 -31 16 -56 58 -108 187 -22 54 -27 46 -10 -15 14 -50 24
-75 62 -156 12 -26 12 -36 3 -45 -10 -9 -15 -8 -25 6 -29 38 -151 443 -182
601 -4 23 -30 214 -38 286 -16 134 -25 601 -13 660 3 14 8 42 12 63 5 24 16
44 31 54 59 38 176 54 211 28z m1571 -9 c60 -31 61 -42 56 -436 -5 -437 -7
-466 -45 -633 -56 -254 -177 -606 -217 -631 -24 -15 -19 31 15 116 50 129 89
257 119 390 58 255 85 443 100 698 14 228 6 387 -21 440 -18 36 -79 60 -151
60 -38 0 -53 3 -48 11 10 17 152 6 192 -15z m-1833 -18 c-9 -45 -13 -94 -14
-150 -1 -27 -5 -48 -9 -48 -9 0 -7 169 3 207 9 36 27 28 20 -9z m2907 -65 c61
-37 88 -98 50 -111 -7 -2 -61 44 -120 103 l-107 107 70 -37 c39 -21 87 -49
107 -62z m-1347 53 c30 -20 60 -77 52 -99 -5 -14 -92 -39 -184 -53 -21 -3 -65
-9 -98 -14 -33 -5 -85 -12 -115 -15 -30 -4 -67 -8 -82 -10 -16 -2 -28 0 -28 4
0 10 242 152 305 179 84 35 106 36 150 8z m-1029 -25 c110 -53 266 -150 258
-162 -3 -5 -8 -8 -12 -5 -4 2 -36 7 -72 10 -36 4 -90 11 -120 16 -55 9 -80 13
-175 25 -126 17 -145 32 -108 85 56 83 108 90 229 31z m1399 -233 c-2 -99 -6
-182 -10 -186 -3 -3 -5 83 -4 192 1 109 5 193 9 186 5 -8 7 -94 5 -192z
m-1775 152 c43 -11 82 -27 91 -38 9 -12 22 -70 33 -153 10 -74 19 -144 21
-156 2 -13 9 -67 15 -120 6 -54 12 -110 15 -125 2 -16 0 -28 -3 -28 -21 1
-176 253 -219 355 -31 74 -60 285 -39 285 6 0 45 -9 86 -20z m1681 -52 c-3
-143 -28 -222 -117 -373 -57 -97 -138 -205 -154 -205 -14 0 -14 -3 19 245 16
121 32 247 36 280 4 33 7 61 9 62 1 1 15 4 31 7 17 3 62 16 100 29 39 14 72
23 74 21 2 -2 3 -32 2 -66z m-1388 -42 c63 -12 151 -26 277 -42 108 -14 116
-21 134 -113 l6 -34 -77 7 c-43 3 -94 8 -113 10 -19 2 -62 7 -95 11 -33 3
-100 13 -150 21 -49 7 -93 14 -96 14 -16 0 -36 82 -30 128 1 16 54 15 144 -2z
m1665 -252 c34 -78 85 -198 112 -268 56 -142 79 -190 87 -182 3 3 1 11 -4 18
-6 7 -29 67 -52 133 -23 66 -49 135 -57 153 -19 41 -13 50 21 28 26 -17 32
-45 14 -63 -7 -7 -7 -13 -1 -17 5 -3 22 11 38 31 26 34 28 35 35 15 11 -30 3
-47 -29 -62 -16 -8 -22 -14 -14 -17 28 -11 95 -175 90 -221 -3 -25 -6 -27 -47
-25 -82 3 -98 28 -197 298 -20 55 -46 123 -59 150 -27 61 -51 160 -59 240 l-6
60 33 -65 c18 -36 61 -128 95 -206z m-2131 236 c-5 -29 -13 -33 -13 -5 0 14 4
25 8 25 4 0 7 -9 5 -20z m1607 -27 c-11 -81 -12 -81 -129 -98 -22 -4 -50 -8
-61 -10 -12 -2 -48 -6 -80 -10 -33 -4 -70 -9 -84 -11 -14 -2 -67 -7 -117 -10
-106 -7 -105 -9 -82 82 9 34 16 44 33 46 52 3 74 6 121 11 28 3 82 9 120 12
39 4 99 12 135 18 35 7 84 13 108 15 l43 2 -7 -47z m-1683 -72 c1 -78 -28
-162 -129 -371 -89 -184 -119 -230 -147 -230 -14 0 -25 2 -25 3 0 14 44 134
56 153 8 12 17 43 19 69 3 33 19 74 59 143 74 131 146 288 146 320 1 16 1 16
11 0 5 -9 10 -48 10 -87z m-114 -83 c-31 -63 -69 -126 -87 -143 -32 -30 -32
-30 -25 -5 14 46 63 135 109 195 25 33 46 64 46 69 0 5 3 7 6 3 3 -3 -19 -57
-49 -119z m-1242 20 c-28 -29 -57 -59 -65 -68 -52 -53 -181 -248 -289 -437
-49 -87 -70 -116 -53 -75 36 87 161 306 215 377 77 100 220 255 235 255 3 0
-16 -23 -43 -52z m3289 -130 c-12 -110 -24 -210 -30 -243 -1 -11 -5 -40 -9
-65 -6 -46 -22 -152 -31 -205 -3 -16 -10 -50 -15 -75 -6 -25 -12 -52 -14 -60
-30 -144 -78 -184 -254 -207 l-44 -6 7 59 c3 32 9 61 14 65 4 4 39 17 77 29
132 43 178 62 165 70 -6 4 -53 -3 -103 -16 -51 -13 -100 -24 -111 -24 -19 0
-19 4 -1 111 2 13 6 38 8 54 12 80 30 161 38 176 4 9 30 22 56 28 80 20 128
48 150 89 24 42 93 258 93 289 0 16 8 33 14 33 1 0 -4 -46 -10 -102z m1390 46
c139 -71 217 -126 280 -199 98 -113 160 -205 154 -229 -2 -12 -12 -12 -58 5
-98 34 -182 83 -237 139 -70 70 -263 315 -263 334 0 11 11 6 124 -50z m-2709
12 c72 -13 155 -27 185 -30 30 -4 72 -11 92 -15 20 -5 39 -7 42 -4 10 11 35
-46 41 -96 l7 -54 -98 7 c-118 8 -131 10 -287 36 -128 22 -153 35 -162 80 -3
14 -8 39 -11 57 -8 42 2 56 35 49 14 -4 85 -17 156 -30z m1038 -11 c-5 -86
-13 -106 -46 -120 -36 -15 -269 -52 -388 -61 -94 -8 -132 0 -125 24 2 9 7 38
11 64 l6 47 52 10 c29 5 75 13 102 16 130 17 275 41 320 53 59 17 70 11 68
-33z m-1444 -104 c39 -179 57 -205 158 -237 30 -10 61 -27 68 -38 14 -21 41
-154 51 -256 4 -30 7 -59 8 -65 2 -15 -31 -13 -104 7 -36 10 -78 21 -95 23
l-30 5 21 -18 c12 -10 63 -33 113 -51 102 -37 115 -49 129 -128 9 -50 8 -53
-11 -53 -44 0 -180 44 -207 67 -26 21 -52 83 -66 158 -2 11 -8 43 -13 70 -12
62 -18 100 -26 190 -4 39 -9 77 -10 86 -2 8 -6 76 -10 150 -4 74 -8 151 -10
172 -4 64 10 28 34 -82z m2853 81 c113 -50 182 -89 232 -133 104 -92 256 -319
324 -484 32 -78 66 -204 57 -213 -8 -9 -189 37 -212 53 -11 8 -23 29 -27 47
-8 41 -65 136 -168 285 -44 63 -98 143 -119 176 -63 102 -169 283 -169 290 0
12 16 8 82 -21z m-877 -147 c65 -178 162 -466 181 -539 8 -32 17 -82 18 -109
5 -77 -15 -39 -58 111 -48 169 -88 292 -130 399 -35 90 -71 211 -81 273 -5 32
-5 33 8 15 8 -11 35 -78 62 -150z m-2184 -15 c-3 -58 -5 -184 -5 -280 4 -738
4 -744 20 -768 15 -23 12 -36 -56 -243 -40 -120 -76 -219 -81 -219 -12 0 -4
32 48 178 42 120 42 123 24 141 -29 29 -36 94 -35 326 0 231 4 274 39 449 14
66 23 122 20 124 -2 2 -25 -63 -50 -144 -26 -81 -65 -195 -87 -253 -77 -208
-106 -382 -101 -596 2 -102 22 -165 59 -190 35 -23 23 -30 -15 -10 -59 30
-106 128 -165 348 -56 203 -56 188 1 249 27 29 57 64 67 78 16 24 16 22 11
-70 -4 -52 -8 -101 -11 -108 -2 -7 0 -11 5 -8 5 3 12 34 16 68 10 90 37 205
56 240 6 10 28 89 49 175 37 143 57 206 135 423 15 41 28 80 30 85 1 6 5 23
10 38 4 15 5 30 2 33 -3 3 -19 -32 -36 -78 -41 -107 -91 -204 -153 -296 -49
-72 -50 -73 -73 -58 -32 21 -38 20 -24 -5 9 -17 8 -25 -4 -37 -9 -8 -22 -12
-30 -9 -12 5 -13 14 -6 48 13 55 13 55 56 70 21 6 45 21 54 33 10 12 64 112
121 223 116 227 118 228 109 43z m-1057 128 c-44 -76 -142 -204 -201 -264 -85
-85 -167 -143 -259 -185 -71 -32 -96 -36 -113 -15 -16 19 49 104 170 223 121
119 142 135 274 199 111 54 142 64 129 42z m816 -127 c-6 -22 -15 -43 -21 -47
-22 -13 -22 8 0 52 26 55 37 52 21 -5z m924 -7 c61 -8 122 -17 136 -19 14 -3
50 -7 81 -11 31 -3 62 -9 68 -13 6 -4 12 -38 14 -77 l2 -69 -61 2 c-66 2 -228
29 -329 54 -112 28 -121 36 -131 109 -9 65 -4 70 57 54 29 -8 103 -21 163 -30z
m1445 -104 c14 -136 17 -165 27 -245 3 -33 8 -71 9 -85 13 -110 17 -146 21
-164 12 -61 19 -189 19 -331 0 -171 -12 -231 -56 -271 -26 -24 -36 -12 -65 73
-22 64 -22 69 -6 93 15 22 17 75 18 510 1 267 3 505 3 530 3 71 16 22 30 -110z
m-502 89 c-10 -83 -33 -105 -132 -124 -134 -26 -317 -55 -352 -55 -45 0 -50 7
-53 65 -5 88 -6 88 95 100 28 4 61 8 75 11 14 2 48 6 75 10 28 3 97 14 155 24
155 26 144 29 137 -31z m-1593 -39 c4 -30 9 -77 11 -105 11 -99 26 -202 47
-323 13 -76 18 -126 12 -132 -5 -5 -25 -11 -43 -12 -40 -3 -35 -28 -46 231 -6
149 1 408 11 399 1 -2 5 -28 8 -58z m2401 3 c29 -70 106 -326 102 -342 -3 -14
-127 346 -127 369 0 20 10 9 25 -27z m-2719 -76 c-7 -23 -31 -97 -54 -164 -22
-67 -57 -190 -78 -273 -22 -82 -42 -150 -45 -150 -23 0 76 387 147 573 28 72
51 84 30 14z m2473 -28 c22 -51 64 -178 96 -294 9 -33 34 -112 55 -175 39
-115 55 -206 66 -375 4 -49 9 -92 11 -95 7 -7 -5 282 -13 314 -4 16 -2 26 5
26 17 0 40 -99 45 -200 3 -52 5 -104 6 -115 l1 -20 9 20 c4 11 7 61 5 110 -1
50 -3 131 -4 180 -1 62 -4 85 -11 75 -5 -8 -10 -28 -11 -45 0 -30 -1 -30 -19
11 -19 44 -28 88 -35 179 l-5 60 54 -60 c51 -57 54 -59 80 -47 l27 12 -23 41
c-33 59 -51 69 -27 14 36 -81 5 -72 -62 18 -50 66 -74 107 -63 107 3 0 20 -10
37 -22 21 -15 44 -22 73 -21 26 1 47 -4 54 -12 37 -44 53 -302 26 -405 -82
-310 -123 -431 -181 -535 -51 -93 -96 -125 -170 -125 -47 0 -47 1 -137 303 -6
20 -9 40 -6 43 3 3 18 -32 33 -78 61 -183 86 -238 110 -244 28 -7 71 14 110
56 l30 31 -1 122 c-1 210 -29 397 -91 605 -46 155 -71 255 -87 352 -18 108
-27 240 -16 240 4 0 17 -23 29 -51z m-126 -489 c-5 -4 -29 -5 -54 -2 l-45 4
27 123 c15 69 38 182 50 252 l24 128 3 -249 c1 -137 -1 -253 -5 -256z m-3303
466 c-4 -13 -31 -68 -58 -122 -78 -157 -126 -292 -146 -415 -7 -41 -15 -45
-109 -55 -69 -8 -82 6 -73 79 13 114 80 237 195 362 32 35 190 175 198 175 1
0 -2 -11 -7 -24z m4944 -221 c89 -135 146 -229 146 -244 0 -6 5 -11 11 -11 6
0 9 -6 7 -12 -3 -9 -30 -13 -84 -13 l-79 0 -22 88 c-34 134 -82 247 -163 380
-73 119 92 -49 184 -188z m-3039 200 c33 -3 71 -8 85 -10 14 -2 52 -7 85 -10
75 -7 132 -22 141 -37 5 -8 -16 -9 -77 -5 -218 17 -346 20 -353 8 -4 -6 -4
-11 1 -12 29 -2 138 -19 215 -33 116 -21 177 -44 192 -74 22 -44 41 -180 30
-214 -6 -19 -11 -20 -78 -14 -39 4 -78 9 -86 11 -8 2 -37 6 -63 10 -60 7 -139
22 -187 35 l-37 10 -13 78 c-7 42 -14 86 -16 97 -3 11 -7 51 -11 88 -8 93 -17
90 172 72z m920 -27 c-2 -13 -6 -41 -9 -63 -12 -85 -18 -117 -34 -182 -16 -64
-19 -69 -52 -80 -67 -21 -199 -36 -330 -37 l-75 -1 -1 36 c-2 60 15 160 33
190 26 44 91 64 322 95 109 15 88 24 -49 20 -80 -3 -152 -7 -160 -10 -31 -10
-120 -14 -125 -6 -12 19 25 28 170 46 28 3 61 7 75 10 14 2 63 6 110 10 47 3
87 8 89 10 12 10 39 -19 36 -38z m2118 -29 c55 -16 79 -30 116 -67 57 -57 103
-147 109 -213 4 -53 -13 -119 -31 -119 -7 0 -34 37 -61 83 -92 154 -129 212
-156 247 -40 52 -63 90 -55 90 4 0 39 -9 78 -21z m-1302 -45 c35 -3 68 -10 74
-15 10 -10 35 -85 35 -106 0 -6 -9 -15 -20 -18 -30 -10 -104 38 -140 90 -29
42 -40 72 -22 61 5 -3 37 -8 73 -12z m1568 -37 c11 -26 18 -47 15 -47 -5 0
-44 86 -44 97 0 12 9 -4 29 -50z m-4163 -29 c-56 -122 -69 -148 -77 -148 -19
0 42 143 82 194 11 14 22 26 24 26 3 0 -11 -33 -29 -72z m-1351 -62 c-36 -52
-70 -108 -76 -125 -6 -17 -17 -31 -24 -31 -7 0 -29 -19 -49 -41 l-36 -42 -15
37 c-26 61 -22 100 20 182 46 90 64 105 110 93 23 -7 44 -5 71 5 22 7 45 14
52 15 6 0 -17 -41 -53 -93z m1265 -13 c-5 -16 -11 -44 -14 -64 -6 -36 -77
-129 -98 -129 -7 0 -8 17 -3 48 13 90 27 123 64 147 49 33 62 32 51 -2z m61
-115 c-12 -51 -32 -115 -46 -143 -23 -48 -24 -49 -25 -19 0 69 70 277 88 259
3 -2 -5 -46 -17 -97z m121 -70 c-3 -35 -6 -151 -6 -258 -1 -156 3 -208 17
-258 23 -86 22 -98 -19 -195 -41 -98 -65 -127 -89 -107 -39 32 -48 71 -47 202
1 230 11 293 82 508 66 198 71 205 62 108z m710 28 c76 -13 98 -16 211 -31
171 -23 169 -22 165 -97 l-3 -63 -60 1 c-107 1 -264 25 -322 49 -24 10 -34 23
-42 52 -16 57 -14 106 3 100 8 -3 30 -8 48 -11z m-916 -57 c-3 -33 -10 -77
-17 -97 -12 -40 -67 -117 -99 -139 -18 -12 -20 -12 -20 2 0 9 16 53 35 97 43
98 39 116 -5 24 -18 -36 -36 -64 -40 -61 -10 6 5 76 19 84 5 3 9 21 8 40 -2
31 3 37 48 64 28 16 52 33 53 38 2 5 8 9 13 9 6 0 8 -26 5 -61z m1824 40 c0
-4 -5 -30 -11 -58 -9 -41 -16 -52 -43 -65 -41 -19 -185 -45 -298 -53 l-88 -6
-1 44 c-3 97 6 109 82 114 99 8 184 17 189 20 3 2 34 6 70 10 36 4 66 8 68 10
6 6 32 -7 32 -16z m-3277 -31 c9 -21 14 -38 12 -38 -7 0 -35 58 -35 71 0 18 6
9 23 -33z m114 10 c-13 -84 -20 -119 -27 -123 -4 -2 -19 9 -35 25 l-28 29 43
50 c23 28 44 51 47 51 2 0 2 -15 0 -32z m3897 -94 c15 -50 29 -102 32 -115 16
-79 23 -121 29 -174 4 -33 8 -71 10 -84 9 -56 17 -253 11 -284 -8 -44 -58 -97
-92 -97 -27 0 -45 32 -95 173 l-24 67 27 23 c63 53 77 118 73 350 -1 106 -6
209 -9 228 -12 60 11 10 38 -87z m-2144 66 c12 -8 10 -10 -11 -10 -28 0 -51
-15 -67 -45 -11 -19 -11 -18 -12 7 0 47 50 74 90 48z m1950 -30 c15 -29 18
-312 3 -317 -8 -3 -10 13 -6 54 3 42 -2 85 -21 158 -14 55 -26 105 -26 112 0
21 38 15 50 -7z m-2010 -130 c-14 -53 -18 -62 -14 -30 3 25 7 50 8 55 13 58
20 78 23 65 2 -8 -6 -49 -17 -90z m1715 68 c-4 -18 -25 -72 -48 -120 -38 -83
-42 -89 -91 -112 -105 -48 -385 -134 -493 -149 -45 -7 -56 11 -58 101 -2 93 8
137 38 156 19 12 230 60 325 73 34 5 35 4 34 -62 -1 -25 1 -23 14 17 17 53 33
63 164 102 117 34 123 34 115 -6z m234 -28 c1 -13 0 -13 -9 0 -5 8 -9 24 -9
35 l0 20 9 -20 c5 -11 9 -27 9 -35z m26 -79 c4 -15 3 -21 -3 -17 -5 3 -12 17
-15 32 -5 30 8 20 18 -15z m-2008 -103 c-3 -8 -6 -5 -6 6 -1 11 2 17 5 13 3
-3 4 -12 1 -19z m538 -110 c55 -16 125 -38 155 -49 30 -10 89 -27 130 -37 84
-22 130 -41 130 -54 0 -4 -1 -8 -3 -8 -20 0 -323 89 -422 124 -71 25 -136 46
-143 46 -38 0 33 -194 90 -247 13 -12 102 -56 198 -96 223 -95 287 -125 295
-137 9 -15 8 -14 -132 39 -228 88 -378 152 -395 169 -21 21 -84 173 -94 226
-6 32 -3 42 12 53 22 16 43 13 179 -29z m1132 -15 c-5 -48 -71 -190 -109 -235
-16 -19 -92 -58 -239 -122 -224 -99 -311 -130 -234 -84 22 13 137 71 256 130
l215 105 37 73 c36 69 59 160 41 160 -5 0 -34 -9 -64 -21 -102 -39 -378 -118
-432 -124 -85 -10 -47 10 92 48 69 19 186 55 260 79 74 24 146 42 159 40 21
-4 23 -9 18 -49z m-923 -432 c223 -90 246 -107 246 -180 0 -28 -2 -51 -5 -51
-5 0 -241 160 -325 220 -126 92 -142 73 -54 -66 148 -237 232 -305 381 -310
65 -3 79 0 141 31 43 22 90 57 126 93 69 71 167 206 204 284 24 51 47 76 59
64 12 -12 -108 -204 -196 -314 -61 -77 -119 -123 -209 -165 -83 -39 -131 -39
-231 0 -92 36 -165 99 -235 207 -60 91 -136 237 -136 261 0 21 2 20 234 -74z
m686 60 c0 -10 -113 -112 -209 -189 -62 -49 -189 -132 -204 -132 -8 0 -2 109
7 131 9 20 61 49 159 88 42 17 112 49 155 70 82 43 92 46 92 32z m-1585 -203
c-9 -34 -20 -67 -25 -72 -9 -9 3 56 21 112 18 57 21 27 4 -40z m1368 -318
c-52 -76 -89 -106 -46 -37 56 90 87 130 91 119 2 -6 -18 -43 -45 -82z m-391
23 c38 -42 74 -97 56 -87 -13 8 -50 49 -87 97 -22 28 3 20 31 -10z m-1212
-442 c0 -6 -4 -13 -10 -16 -5 -3 -10 1 -10 9 0 9 5 16 10 16 6 0 10 -4 10 -9z
m2874 -7 c4 -11 1 -14 -11 -12 -9 2 -18 9 -21 16 -6 18 25 15 32 -4z"/>
<path d="M5915 6048 c-22 -22 -80 -67 -130 -100 -108 -73 -125 -88 -65 -58
108 54 191 116 232 173 28 39 10 32 -37 -15z"/>
<path d="M1017 6072 c102 -80 187 -128 256 -145 46 -12 30 1 -45 36 -40 19
-111 60 -158 91 -96 64 -125 74 -53 18z"/>
<path d="M1720 5341 c0 -9 30 -24 36 -18 2 1 -6 8 -16 15 -11 7 -20 8 -20 3z"/>
<path d="M3385 5593 c-54 -11 -155 -45 -155 -53 0 -5 19 -2 43 6 99 33 299 38
426 11 52 -12 61 -12 47 -1 -46 33 -263 55 -361 37z"/>
<path d="M3995 4868 c11 -8 58 -35 104 -59 46 -24 107 -64 135 -89 28 -25 62
-54 76 -65 l25 -20 -15 20 c-55 74 -228 193 -320 220 -24 7 -24 6 -5 -7z"/>
<path d="M1215 4633 c-101 -21 -164 -38 -185 -50 -21 -12 -22 -13 -3 -8 12 3
32 8 45 10 92 17 168 38 168 46 0 5 -1 8 -2 8 -2 -1 -12 -3 -23 -6z"/>
<path d="M2995 4000 c-3 -5 -1 -10 4 -10 6 0 11 5 11 10 0 6 -2 10 -4 10 -3 0
-8 -4 -11 -10z"/>
<path d="M3217 3858 c-110 -14 -99 -28 18 -22 121 6 161 11 151 22 -10 9 -101
10 -169 0z"/>
<path d="M2868 3825 c6 -11 19 -27 29 -35 46 -37 53 -42 53 -38 0 2 -21 24
-46 48 -26 25 -42 36 -36 25z"/>
<path d="M3627 3859 c12 -12 167 -19 184 -8 16 10 10 11 -114 14 -43 1 -74 -2
-70 -6z"/>
<path d="M1171 2538 c-52 -123 -116 -316 -108 -324 2 -3 23 48 45 113 22 65
52 148 66 186 28 74 26 92 -3 25z"/>
<path d="M2082 3592 c-47 -68 -150 -269 -226 -444 -250 -576 -246 -565 -228
-554 5 3 32 59 60 123 28 65 68 156 90 203 22 47 72 159 112 250 69 157 138
295 209 423 18 31 31 57 28 57 -2 0 -22 -26 -45 -58z"/>
<path d="M4951 2194 c8 -10 19 -29 26 -43 10 -22 11 -23 12 -6 1 24 -25 65
-41 65 -6 0 -5 -7 3 -16z"/>
<path d="M4897 2532 c3 -12 9 -25 14 -28 14 -8 11 10 -6 32 -13 18 -14 18 -8
-4z"/>
<path d="M1395 5174 c59 -59 272 -211 281 -201 4 4 -159 127 -266 202 l-55 38
40 -39z"/>
<path d="M1760 4935 c7 -9 15 -13 17 -11 7 7 -7 26 -19 26 -6 0 -6 -6 2 -15z"/>
</g>
</svg>
